<mxfile host="65bd71144e">
    <diagram id="Q_n2akOQLZpbvA9C2tNk" name="Page-1">
        <mxGraphModel dx="773" dy="594" grid="1" gridSize="10" guides="1" tooltips="1" connect="1" arrows="1" fold="1" page="1" pageScale="1" pageWidth="850" pageHeight="1100" math="0" shadow="0">
            <root>
                <mxCell id="0"/>
                <mxCell id="1" parent="0"/>
                <mxCell id="2" value="" style="rounded=0;whiteSpace=wrap;html=1;fillColor=#FFFF00;" vertex="1" parent="1">
                    <mxGeometry x="25" y="180" width="800" height="890" as="geometry"/>
                </mxCell>
                <mxCell id="3" value="&lt;font size=&quot;3&quot; face=&quot;Comic Sans MS&quot;&gt;App Sidebar&lt;/font&gt;" style="rounded=0;whiteSpace=wrap;html=1;fillColor=#60a917;fontColor=#ffffff;strokeColor=#2D7600;" vertex="1" parent="1">
                    <mxGeometry x="90" y="240" width="120" height="60" as="geometry"/>
                </mxCell>
                <mxCell id="4" value="&lt;font color=&quot;#ffff00&quot;&gt;&lt;font style=&quot;font-size: 24px;&quot; face=&quot;Comic Sans MS&quot;&gt;&lt;strong&gt;flex&lt;/strong&gt;: Applies Flexbox layout.&lt;br&gt;&lt;/font&gt;&lt;font style=&quot;font-size: 24px;&quot; face=&quot;Comic Sans MS&quot;&gt;&lt;strong style=&quot;&quot;&gt;h-screen&lt;/strong&gt;: Full viewport height.&lt;br&gt;&lt;/font&gt;&lt;font style=&quot;font-size: 24px;&quot; face=&quot;Comic Sans MS&quot;&gt;&lt;strong&gt;w-full&lt;/strong&gt;: Full width of the parent container.&lt;br&gt;&lt;/font&gt;&lt;font style=&quot;font-size: 24px;&quot; face=&quot;Comic Sans MS&quot;&gt;&lt;strong&gt;overflow-hidden&lt;/strong&gt;: Hides overflowing content.&lt;/font&gt;&lt;/font&gt;&lt;font style=&quot;font-size: 24px;&quot; face=&quot;Comic Sans MS&quot;&gt;&lt;br&gt;&lt;/font&gt;" style="text;html=1;align=center;verticalAlign=middle;resizable=0;points=[];autosize=1;strokeColor=none;fillColor=none;" vertex="1" parent="1">
                    <mxGeometry x="165" y="20" width="520" height="130" as="geometry"/>
                </mxCell>
                <mxCell id="6" value="" style="rounded=0;whiteSpace=wrap;html=1;fontFamily=Comic Sans MS;fontSize=14;fillColor=#CC0000;fontColor=#ffffff;strokeColor=#3700CC;" vertex="1" parent="1">
                    <mxGeometry x="40" y="380" width="770" height="680" as="geometry"/>
                </mxCell>
                <mxCell id="25" value="&lt;font color=&quot;#cc0000&quot;&gt;&lt;strong&gt;flex&lt;/strong&gt;: Applies Flexbox layout.&lt;br&gt;&lt;strong&gt;grow&lt;/strong&gt;: Element grows to fill available space.&lt;br&gt;&lt;strong&gt;flex-col&lt;/strong&gt;: Arranges items in a column.&lt;br&gt;&lt;strong&gt;content-start&lt;/strong&gt;: Aligns items at the start.&lt;br&gt;&lt;strong&gt;overflow-hidden&lt;/strong&gt;: Hides overflowing content.&lt;br&gt;&lt;strong&gt;bg-card&lt;/strong&gt;: Applies background styling&lt;/font&gt;" style="text;html=1;strokeColor=none;fillColor=none;align=center;verticalAlign=middle;whiteSpace=wrap;rounded=0;fontFamily=Comic Sans MS;fontSize=24;" vertex="1" parent="1">
                    <mxGeometry x="220" y="230" width="590" height="110" as="geometry"/>
                </mxCell>
                <mxCell id="26" value="App Navbar" style="rounded=0;whiteSpace=wrap;html=1;fontFamily=Comic Sans MS;fontSize=24;" vertex="1" parent="1">
                    <mxGeometry x="90" y="410" width="160" height="70" as="geometry"/>
                </mxCell>
                <mxCell id="27" value="" style="rounded=0;whiteSpace=wrap;html=1;fontFamily=Comic Sans MS;fontSize=24;fillColor=#FFCCE6;" vertex="1" parent="1">
                    <mxGeometry x="60" y="630" width="730" height="330" as="geometry"/>
                </mxCell>
                <mxCell id="28" value="App Footer" style="rounded=0;whiteSpace=wrap;html=1;fontFamily=Comic Sans MS;fontSize=24;fillColor=#a20025;fontColor=#ffffff;strokeColor=#6F0000;" vertex="1" parent="1">
                    <mxGeometry x="70" y="980" width="710" height="60" as="geometry"/>
                </mxCell>
                <mxCell id="30" value="&lt;font color=&quot;#0000ff&quot;&gt;Router Outlet&lt;/font&gt;" style="text;html=1;strokeColor=none;fillColor=none;align=center;verticalAlign=middle;whiteSpace=wrap;rounded=0;fontFamily=Comic Sans MS;fontSize=24;" vertex="1" parent="1">
                    <mxGeometry x="395" y="780" width="60" height="30" as="geometry"/>
                </mxCell>
                <mxCell id="31" value="&lt;font style=&quot;font-size: 18px;&quot;&gt;&lt;font color=&quot;#ffcce6&quot;&gt;&lt;strong style=&quot;&quot;&gt;scrollbar-thumb-rounded&lt;/strong&gt;: Rounded scrollbar thumb.&lt;br&gt;&lt;strong style=&quot;&quot;&gt;scrollbar-track-rounded&lt;/strong&gt;: Rounded scrollbar track.&lt;br&gt;&lt;strong style=&quot;&quot;&gt;grow&lt;/strong&gt;: Element grows to fill available space.&lt;br&gt;&lt;strong style=&quot;&quot;&gt;overflow-auto&lt;/strong&gt;: Adds scrollbar if needed.&lt;br&gt;&lt;strong style=&quot;&quot;&gt;scrollbar-thin&lt;/strong&gt;: Thin scrollbar.&lt;br&gt;&lt;strong style=&quot;&quot;&gt;scrollbar-track-transparent&lt;/strong&gt;: Transparent scrollbar track.&lt;br&gt;&lt;strong style=&quot;&quot;&gt;scrollbar-thumb-muted&lt;/strong&gt;: Muted color for scrollbar thumb.&lt;/font&gt;&lt;br&gt;&lt;/font&gt;" style="text;html=1;strokeColor=none;fillColor=none;align=center;verticalAlign=middle;whiteSpace=wrap;rounded=0;fontFamily=Comic Sans MS;fontSize=24;" vertex="1" parent="1">
                    <mxGeometry x="270" y="390" width="530" height="240" as="geometry"/>
                </mxCell>
            </root>
        </mxGraphModel>
    </diagram>
</mxfile>